PathFileType	4	(X/Y/Z)	./resultDataOpenSim/trcMotMarkerGrf/sub10/qtm-01-06.trc
DataRate	CameraRate	NumFrames	NumMarkers	Units	OrigDataRate	OrigDataStartFrame	OrigNumFrames
250.000000	250.000000	10	24	m	250.000000	59	464
Frame#	Time	L.Toe.Tip			R.Toe.Tip			L.Ankle.Lat			R.Ankle.Lat			L.Ankle.Med			R.Ankle.Med			L.Heel			R.Heel			L.Knee.Lat			R.Knee.Lat			L.Knee.Med			R.Knee.Med			L.Thigh.Upper			R.Thigh.Upper			L.ASIS			R.ASIS			V.Sacral			L.Acromium			R.Acromium			C7			L.Elbow			R.Elbow			L.Wrist.Lat			R.Wrist.Lat
		X1	Y1	Z1	X2	Y2	Z2	X3	Y3	Z3	X4	Y4	Z4	X5	Y5	Z5	X6	Y6	Z6	X7	Y7	Z7	X8	Y8	Z8	X9	Y9	Z9	X10	Y10	Z10	X11	Y11	Z11	X12	Y12	Z12	X13	Y13	Z13	X14	Y14	Z14	X15	Y15	Z15	X16	Y16	Z16	X17	Y17	Z17	X18	Y18	Z18	X19	Y19	Z19	X20	Y20	Z20	X21	Y21	Z21	X22	Y22	Z22	X23	Y23	Z23	X24	Y24	Z24

59	0.232	-1.3710041	0.067550534	-0.18894455	-0.73959977	0.039221241	0.039728473	-1.3624417	0.204278	-0.22096301	-0.88062117	0.052798197	0.073854896	-1.3394845	0.19615534	-0.14012154	-0.86187424	0.080169402	-0.0087655971	-1.4040476	0.25341073	-0.17435139	-0.9321492	0.02854828	0.024951674	-1.0459379	0.41339044	-0.2176648	-0.85610007	0.45409965	0.10233907	-1.0369192	0.37221188	-0.1003323	-0.85190322	0.45905919	-0.025017077	-1.0004894	0.78861912	-0.23310793	-0.95840727	0.86091938	0.14965862	-0.93297882	0.90075941	-0.17621513	-0.90302831	0.93810145	0.063223358	-1.1181451	0.93520143	-0.036039566	-0.96203908	1.3867375	-0.2104585	-1.0130868	1.3935632	0.1093619	-1.069403	1.4193926	-0.064490627	-1.0185204	1.0427129	-0.24463183	-1.1517028	1.0778194	0.1391321	-0.8232057	0.88626959	-0.25062653	-1.1100363	0.85350969	0.21903497
60	0.236	-1.3575885	0.069334885	-0.18819202	-0.73950759	0.039165489	0.039621072	-1.3514655	0.20619244	-0.21892819	-0.88064414	0.052819704	0.073815994	-1.3280968	0.19787059	-0.13820537	-0.86173546	0.080149775	-0.008883873	-1.3937182	0.25474566	-0.17206146	-0.93218348	0.028565581	0.024957858	-1.0340338	0.41363056	-0.21652838	-0.85327821	0.45416138	0.10257286	-1.0249988	0.37328657	-0.098950243	-0.85027093	0.45902548	-0.024850683	-0.99442692	0.78920655	-0.23235757	-0.95356413	0.86145689	0.15016654	-0.92734269	0.90199753	-0.1757222	-0.89729849	0.93901176	0.06407453	-1.1130512	0.9355983	-0.035598047	-0.95646927	1.3876494	-0.20972311	-1.0066281	1.3945255	0.1102855	-1.0637183	1.4205597	-0.063433872	-1.0137545	1.0439806	-0.24421706	-1.1447924	1.0783857	0.14108549	-0.8200819	0.8856756	-0.25113993	-1.1007774	0.85407565	0.2203722
61	0.24	-1.3438911	0.07076093	-0.18688725	-0.73944284	0.039119667	0.039532067	-1.3402088	0.20784264	-0.21683101	-0.88068429	0.052847123	0.073763627	-1.3166653	0.19949374	-0.1361776	-0.8616006	0.080131993	-0.0090093352	-1.3834672	0.2556859	-0.16979187	-0.93222206	0.02858605	0.024953855	-1.0221863	0.41406785	-0.21536159	-0.8507353	0.45415359	0.10276392	-1.0134625	0.37442669	-0.097411407	-0.84859995	0.45896188	-0.024754194	-0.9883873	0.78996119	-0.23154349	-0.9488626	0.86194148	0.15059883	-0.92189696	0.9032968	-0.17536317	-0.89181804	0.93990926	0.064881439	-1.1080513	0.9359538	-0.035159304	-0.95095237	1.3885821	-0.20898596	-1.0001848	1.3955077	0.11118356	-1.0580497	1.4217369	-0.062380169	-1.0090304	1.0452513	-0.24383348	-1.1379627	1.0789466	0.14303388	-0.81702993	0.88511887	-0.25163095	-1.0915131	0.85465978	0.22169825
62	0.244	-1.3298679	0.071922099	-0.18524421	-0.73940527	0.039085295	0.039467401	-1.3286803	0.20923529	-0.21468131	-0.88072188	0.052881156	0.073698648	-1.3051346	0.20098999	-0.13406047	-0.86147197	0.080114747	-0.0091358615	-1.3732472	0.25623331	-0.16752721	-0.93225926	0.02861137	0.024938213	-1.010442	0.41471233	-0.214191	-0.84839299	0.45410422	0.10295123	-1.0022097	0.3756035	-0.095731849	-0.84669618	0.45889151	-0.024717861	-0.98232111	0.79089299	-0.2306652	-0.94423911	0.86239948	0.15098507	-0.91659314	0.9046599	-0.17511076	-0.88653236	0.94080176	0.06566861	-1.1031251	0.93628676	-0.034697153	-0.94548583	1.3895277	-0.20825066	-0.99380766	1.3965181	0.11206986	-1.0523978	1.4229216	-0.061329697	-1.0043601	1.0465363	-0.24349737	-1.1311674	1.0794813	0.14497166	-0.81406823	0.88460242	-0.25210354	-1.0822366	0.85526729	0.22301137
63	0.248	-1.3154036	0.072920376	-0.18351923	-0.73939068	0.039060138	0.039432467	-1.3169176	0.21038141	-0.21248683	-0.88073987	0.052918946	0.073625185	-1.2934416	0.20232894	-0.13188892	-0.86135693	0.080094395	-0.0092543812	-1.362975	0.25641503	-0.16528294	-0.93228894	0.028640702	0.024910401	-0.99873142	0.41558134	-0.21300944	-0.84621564	0.45402616	0.10315376	-0.99090786	0.37684872	-0.094037912	-0.84455538	0.45885167	-0.024661285	-0.97631584	0.79196512	-0.2298046	-0.93964866	0.86284584	0.15134099	-0.91136274	0.90608896	-0.17492948	-0.88132935	0.94169516	0.066458139	-1.0982384	0.93663293	-0.034179082	-0.94007025	1.3904907	-0.20752386	-0.98752719	1.397554	0.11294799	-1.0467691	1.424107	-0.060295238	-0.99974863	1.0478376	-0.24321263	-1.1242957	1.0799696	0.14687494	-0.81119831	0.88412737	-0.25256223	-1.0728636	0.85591099	0.22431835
64	0.252	-1.3004599	0.073807384	-0.18182455	-0.73939314	0.039042543	0.03942923	-1.3049632	0.21129525	-0.21025433	-0.88075467	0.052958153	0.073552413	-1.2814697	0.20350617	-0.1297153	-0.86126487	0.080068812	-0.0093578809	-1.3525633	0.25626417	-0.16307655	-0.93230707	0.028672815	0.024868459	-0.98697788	0.41667337	-0.21179028	-0.84422273	0.45391167	0.10337544	-0.97937277	0.37819498	-0.09244382	-0.84237987	0.45884281	-0.024525183	-0.97045227	0.79314106	-0.22902144	-0.93506194	0.86328294	0.15167448	-0.90617592	0.90757843	-0.17479875	-0.87614753	0.94259359	0.067262701	-1.0933593	0.93705003	-0.033616087	-0.93472249	1.3914832	-0.20681917	-0.98133776	1.3986111	0.11381548	-1.0411769	1.4252845	-0.059295146	-0.9951885	1.0491519	-0.24296	-1.117153	1.0803922	0.14869342	-0.80841618	0.88369418	-0.25301146	-1.0633128	0.85660431	0.22563728
65	0.256	-1.2850724	0.074590578	-0.18015079	-0.7394081	0.039034851	0.039455831	-1.2928468	0.21199613	-0.20798779	-0.88084153	0.052998826	0.07349661	-1.2690852	0.20455379	-0.12758773	-0.86120534	0.080041136	-0.0094420546	-1.34196	0.25579994	-0.16089944	-0.93231197	0.028705476	0.024805485	-0.97518765	0.41795332	-0.210531	-0.84241848	0.45376204	0.103619	-0.9676578	0.37964861	-0.09096954	-0.84036612	0.45883314	-0.024321464	-0.96468948	0.79442152	-0.22827733	-0.93043152	0.86371079	0.15199565	-0.90103664	0.9091219	-0.17470947	-0.87097288	0.94349977	0.068093568	-1.0884859	0.93758724	-0.033121276	-0.9294659	1.3925062	-0.20614293	-0.97519439	1.3997009	0.11466937	-1.0356329	1.426445	-0.05834062	-0.99067028	1.0504773	-0.24270906	-1.1095592	1.0807425	0.15038642	-0.80573183	0.88330186	-0.25345402	-1.0535968	0.85734814	0.22696889
66	0.26	-1.2693169	0.075254485	-0.17845174	-0.73943524	0.039042015	0.039508263	-1.2805796	0.21250402	-0.20569438	-0.88110228	0.05304191	0.073474352	-1.2562947	0.2055105	-0.12551177	-0.86118532	0.080018753	-0.0095046577	-1.3311427	0.25503367	-0.15872924	-0.93230212	0.028732181	0.024710091	-0.9634132	0.4193699	-0.20924975	-0.84073791	0.45361021	0.10389315	-0.95587963	0.38120851	-0.089570686	-0.83856769	0.45879457	-0.024082851	-0.95894928	0.79582578	-0.22749966	-0.92571392	0.86413109	0.15231029	-0.89595115	0.91071827	-0.17465218	-0.8658085	0.9444116	0.068958407	-1.0836443	0.93827468	-0.032868697	-0.92430032	1.393548	-0.20548036	-0.96905078	1.4008387	0.11551457	-1.0301381	1.4275866	-0.057426158	-0.98619735	1.0518079	-0.24244122	-1.1015548	1.0810602	0.15201275	-0.80317556	0.88295001	-0.25389556	-1.0438261	0.85812133	0.2282729
67	0.264	-1.2532826	0.07577989	-0.17669707	-0.73947907	0.039066529	0.039583199	-1.2681593	0.21282563	-0.20339222	-0.88154587	0.053085043	0.073480786	-1.2433084	0.20636455	-0.12344283	-0.86120766	0.080009497	-0.0095462959	-1.3200935	0.25397926	-0.15654403	-0.93227641	0.028742734	0.02457406	-0.95170128	0.42088249	-0.20795266	-0.83909737	0.45349614	0.10420425	-0.94410444	0.38288237	-0.088207214	-0.83693758	0.45871212	-0.023822602	-0.95323504	0.79735137	-0.22667561	-0.92092203	0.86454499	0.15261455	-0.89091579	0.91236004	-0.17461716	-0.86068509	0.94531617	0.069838202	-1.0788478	0.93912813	-0.032962057	-0.91918147	1.3946036	-0.20480353	-0.96290367	1.4020186	0.11635828	-1.0246813	1.4287168	-0.056534026	-0.98178064	1.0531357	-0.24215536	-1.0934643	1.0814425	0.15375097	-0.80076196	0.88264336	-0.25434449	-1.0340829	0.85889596	0.2295048
68	0.268	-1.2370482	0.076162643	-0.17488767	-0.73954665	0.039104491	0.039680449	-1.2555772	0.21293526	-0.20110268	-0.88201994	0.053118407	0.0734818	-1.2303748	0.20702706	-0.121317	-0.86127167	0.080017296	-0.0095709061	-1.3087853	0.25265021	-0.15433132	-0.93224104	0.028734324	0.024407123	-0.94008632	0.42246778	-0.20663048	-0.83747927	0.45342673	0.10454332	-0.93234883	0.38468478	-0.086866997	-0.83540715	0.45858059	-0.023547525	-0.9476293	0.79895585	-0.22587292	-0.91610778	0.86495343	0.15290324	-0.8859252	0.91402233	-0.17460123	-0.85567294	0.94619265	0.070676852	-1.0740581	0.94013743	-0.033342845	-0.91404176	1.3956809	-0.20409612	-0.95678716	1.4032138	0.11719919	-1.0192481	1.4298434	-0.055650426	-0.97742311	1.0544632	-0.24185952	-1.0856351	1.0819707	0.15573987	-0.7984519	0.88239041	-0.25480277	-1.0243225	0.8596658	0.23067243
